<svg xmlns="http://www.w3.org/2000/svg" xmlns:xlink="http://www.w3.org/1999/xlink" width="775" zoomAndPan="magnify" viewBox="0 0 581.25 582" height="776" preserveAspectRatio="xMidYMid meet" version="1.0"><defs><g/><clipPath id="4521f4de79"><path d="M 0 0.375 L 580.5 0.375 L 580.5 581.625 L 0 581.625 Z M 0 0.375 " clip-rule="nonzero"/></clipPath><clipPath id="c89fd891d5"><path d="M 0.199219 4 L 229 4 L 229 425 L 0.199219 425 Z M 0.199219 4 " clip-rule="nonzero"/></clipPath><clipPath id="1eceef6bff"><rect x="0" width="229" y="0" height="421"/></clipPath><clipPath id="625cbdf4ed"><rect x="0" width="370" y="0" height="434"/></clipPath></defs><g clip-path="url(#4521f4de79)"><path fill="#ffffff" d="M 0 0.375 L 580.5 0.375 L 580.5 581.625 L 0 581.625 Z M 0 0.375 " fill-opacity="1" fill-rule="nonzero"/></g><g transform="matrix(1, 0, 0, 1, 94, 74)"><g clip-path="url(#625cbdf4ed)"><g clip-path="url(#c89fd891d5)"><g transform="matrix(1, 0, 0, 1, 0, 4)"><g clip-path="url(#1eceef6bff)"><g fill="#000000" fill-opacity="1"><g transform="translate(0.306372, 341.234267)"><g><path d="M 217.84375 -222.5625 L 217.84375 -216.265625 C 211.132812 -215.429688 206.101562 -213.703125 202.75 -211.078125 C 199.394531 -208.460938 197.140625 -204.320312 195.984375 -198.65625 C 194.835938 -193 194.265625 -185.039062 194.265625 -174.78125 L 194.265625 0.625 C 191.753906 0.414062 189.1875 0.3125 186.5625 0.3125 C 183.945312 0.3125 181.171875 0.414062 178.234375 0.625 L 41.8125 -172.265625 L 41.8125 -51.546875 C 41.8125 -40.023438 42.4375 -31.171875 43.6875 -24.984375 C 44.945312 -18.804688 47.722656 -14.40625 52.015625 -11.78125 C 56.316406 -9.164062 63.078125 -7.332031 72.296875 -6.28125 L 72.296875 0 C 68.316406 -0.414062 63.078125 -0.675781 56.578125 -0.78125 C 50.085938 -0.882812 44.007812 -0.9375 38.34375 -0.9375 C 33.53125 -0.9375 28.609375 -0.882812 23.578125 -0.78125 C 18.546875 -0.675781 14.351562 -0.414062 11 0 L 11 -6.28125 C 17.707031 -7.332031 22.738281 -9.113281 26.09375 -11.625 C 29.445312 -14.144531 31.695312 -18.285156 32.84375 -24.046875 C 34 -29.804688 34.578125 -37.71875 34.578125 -47.78125 L 34.578125 -189.234375 C 34.578125 -196.984375 34 -202.691406 32.84375 -206.359375 C 31.695312 -210.035156 29.394531 -212.550781 25.9375 -213.90625 C 22.476562 -215.269531 17.5 -216.054688 11 -216.265625 L 11 -222.5625 C 14.351562 -222.34375 18.546875 -222.128906 23.578125 -221.921875 C 28.609375 -221.710938 33.53125 -221.609375 38.34375 -221.609375 C 43.375 -221.609375 48.191406 -221.710938 52.796875 -221.921875 C 57.410156 -222.128906 61.609375 -222.34375 65.390625 -222.5625 L 187.03125 -72.609375 L 187.03125 -171 C 187.03125 -182.53125 186.398438 -191.382812 185.140625 -197.5625 C 183.890625 -203.75 181.113281 -208.203125 176.8125 -210.921875 C 172.519531 -213.648438 165.765625 -215.429688 156.546875 -216.265625 L 156.546875 -222.5625 C 160.523438 -222.34375 165.757812 -222.128906 172.25 -221.921875 C 178.75 -221.710938 184.832031 -221.609375 190.5 -221.609375 C 195.519531 -221.609375 200.492188 -221.710938 205.421875 -221.921875 C 210.347656 -222.128906 214.488281 -222.34375 217.84375 -222.5625 Z M 217.84375 -222.5625 "/></g></g></g></g></g></g><g fill="#000000" fill-opacity="1"><g transform="translate(133.743473, 351.863998)"><g><path d="M 11.015625 -229.296875 C 16.410156 -229.085938 23.695312 -228.875 32.875 -228.65625 C 42.050781 -228.4375 51.171875 -228.328125 60.234375 -228.328125 C 70.597656 -228.328125 80.640625 -228.4375 90.359375 -228.65625 C 100.078125 -228.875 106.988281 -228.984375 111.09375 -228.984375 C 131.164062 -228.984375 147.84375 -226.769531 161.125 -222.34375 C 174.40625 -217.914062 184.335938 -211.488281 190.921875 -203.0625 C 197.503906 -194.644531 200.796875 -184.5 200.796875 -172.625 C 200.796875 -165.28125 199.285156 -157.882812 196.265625 -150.4375 C 193.242188 -142.988281 188.113281 -136.078125 180.875 -129.703125 C 173.644531 -123.335938 163.769531 -118.265625 151.25 -114.484375 C 138.726562 -110.710938 122.96875 -108.828125 103.96875 -108.828125 L 72.875 -108.828125 L 72.875 -115.296875 L 100.71875 -115.296875 C 113.457031 -115.296875 123.117188 -117.722656 129.703125 -122.578125 C 136.296875 -127.441406 140.832031 -133.921875 143.3125 -142.015625 C 145.800781 -150.117188 147.046875 -159.132812 147.046875 -169.0625 C 147.046875 -186.125 144.019531 -199.347656 137.96875 -208.734375 C 131.925781 -218.128906 121.5625 -222.828125 106.875 -222.828125 C 98.457031 -222.828125 93.003906 -220.988281 90.515625 -217.3125 C 88.035156 -213.644531 86.796875 -206.195312 86.796875 -194.96875 L 86.796875 -34.328125 C 86.796875 -26.554688 87.390625 -20.726562 88.578125 -16.84375 C 89.765625 -12.957031 92.082031 -10.363281 95.53125 -9.0625 C 98.988281 -7.769531 104.175781 -6.910156 111.09375 -6.484375 L 111.09375 0 C 105.257812 -0.425781 97.914062 -0.691406 89.0625 -0.796875 C 80.207031 -0.910156 71.25 -0.96875 62.1875 -0.96875 C 51.820312 -0.96875 42.050781 -0.910156 32.875 -0.796875 C 23.695312 -0.691406 16.410156 -0.425781 11.015625 0 L 11.015625 -6.484375 C 17.921875 -6.910156 23.097656 -7.769531 26.546875 -9.0625 C 30.003906 -10.363281 32.328125 -12.957031 33.515625 -16.84375 C 34.703125 -20.726562 35.296875 -26.554688 35.296875 -34.328125 L 35.296875 -194.96875 C 35.296875 -202.957031 34.703125 -208.84375 33.515625 -212.625 C 32.328125 -216.40625 29.953125 -218.992188 26.390625 -220.390625 C 22.828125 -221.796875 17.703125 -222.609375 11.015625 -222.828125 Z M 72.21875 -114.328125 C 81.507812 -114.109375 89.554688 -113.675781 96.359375 -113.03125 C 103.160156 -112.382812 109.148438 -111.789062 114.328125 -111.25 C 119.503906 -110.707031 124.144531 -110.332031 128.25 -110.125 C 147.90625 -108.394531 162.425781 -104.179688 171.8125 -97.484375 C 181.207031 -90.796875 187.304688 -80.753906 190.109375 -67.359375 L 197.5625 -34 C 199.507812 -25.363281 201.5625 -19.316406 203.71875 -15.859375 C 205.875 -12.410156 209.003906 -10.6875 213.109375 -10.6875 C 215.910156 -10.90625 218.226562 -11.609375 220.0625 -12.796875 C 221.90625 -13.984375 223.90625 -15.765625 226.0625 -18.140625 L 230.59375 -14.25 C 224.769531 -7.550781 218.507812 -2.75 211.8125 0.15625 C 205.125 3.070312 197.03125 4.53125 187.53125 4.53125 C 175.863281 4.53125 166.25 2.050781 158.6875 -2.90625 C 151.132812 -7.875 146.171875 -17.050781 143.796875 -30.4375 L 137.96875 -62.828125 C 136.457031 -71.898438 134.617188 -79.835938 132.453125 -86.640625 C 130.296875 -93.441406 127.328125 -98.835938 123.546875 -102.828125 C 119.773438 -106.828125 114.539062 -108.828125 107.84375 -108.828125 L 72.875 -108.828125 Z M 72.21875 -114.328125 "/></g></g></g></g></g></svg>