<svg xmlns="http://www.w3.org/2000/svg" xmlns:xlink="http://www.w3.org/1999/xlink" width="2000" zoomAndPan="magnify" viewBox="0 0 1500 1499.999933" height="2000" preserveAspectRatio="xMidYMid meet" version="1.0"><defs><g/><clipPath id="79e9ad039a"><path d="M 0.558594 0 L 807 0 L 807 1419 L 0.558594 1419 Z M 0.558594 0 " clip-rule="nonzero"/></clipPath><clipPath id="448a9eb6f5"><rect x="0" width="807" y="0" height="1419"/></clipPath><clipPath id="7e330a8a65"><rect x="0" width="1306" y="0" height="1451"/></clipPath></defs><g transform="matrix(1, 0, 0, 1, 88, 0.000000000000112861)"><g clip-path="url(#7e330a8a65)"><g clip-path="url(#79e9ad039a)"><g transform="matrix(1, 0, 0, 1, 0.000000000000014211, 0.000000000000112861)"><g clip-path="url(#448a9eb6f5)"><g fill="#000000" fill-opacity="1"><g transform="translate(0.596998, 1137.248274)"><g><path d="M 770.109375 -786.78125 L 770.109375 -764.546875 C 746.398438 -761.585938 728.617188 -755.476562 716.765625 -746.21875 C 704.910156 -736.957031 696.945312 -722.320312 692.875 -702.3125 C 688.800781 -682.3125 686.765625 -654.160156 686.765625 -617.859375 L 686.765625 2.21875 C 677.867188 1.476562 668.789062 1.109375 659.53125 1.109375 C 650.269531 1.109375 640.457031 1.476562 630.09375 2.21875 L 147.796875 -608.96875 L 147.796875 -182.25 C 147.796875 -141.5 150.019531 -110.195312 154.46875 -88.34375 C 158.914062 -66.488281 168.734375 -50.929688 183.921875 -41.671875 C 199.109375 -32.410156 223 -25.925781 255.59375 -22.21875 L 255.59375 0 C 241.519531 -1.476562 223 -2.398438 200.03125 -2.765625 C 177.0625 -3.140625 155.578125 -3.328125 135.578125 -3.328125 C 118.535156 -3.328125 101.125 -3.140625 83.34375 -2.765625 C 65.5625 -2.398438 50.742188 -1.476562 38.890625 0 L 38.890625 -22.21875 C 62.597656 -25.925781 80.378906 -32.222656 92.234375 -41.109375 C 104.085938 -50.003906 112.050781 -64.640625 116.125 -85.015625 C 120.195312 -105.390625 122.234375 -133.351562 122.234375 -168.90625 L 122.234375 -668.984375 C 122.234375 -696.390625 120.195312 -716.578125 116.125 -729.546875 C 112.050781 -742.515625 103.898438 -751.40625 91.671875 -756.21875 C 79.453125 -761.03125 61.859375 -763.804688 38.890625 -764.546875 L 38.890625 -786.78125 C 50.742188 -786.039062 65.5625 -785.296875 83.34375 -784.546875 C 101.125 -783.804688 118.535156 -783.4375 135.578125 -783.4375 C 153.359375 -783.4375 170.394531 -783.804688 186.6875 -784.546875 C 202.988281 -785.296875 217.804688 -786.039062 231.140625 -786.78125 L 661.203125 -256.703125 L 661.203125 -604.53125 C 661.203125 -645.269531 658.976562 -676.566406 654.53125 -698.421875 C 650.09375 -720.285156 640.28125 -736.03125 625.09375 -745.65625 C 609.90625 -755.289062 586.007812 -761.585938 553.40625 -764.546875 L 553.40625 -786.78125 C 567.488281 -786.039062 586.007812 -785.296875 608.96875 -784.546875 C 631.9375 -783.804688 653.421875 -783.4375 673.421875 -783.4375 C 691.203125 -783.4375 708.796875 -783.804688 726.203125 -784.546875 C 743.617188 -785.296875 758.253906 -786.039062 770.109375 -786.78125 Z M 770.109375 -786.78125 "/></g></g></g></g></g></g><g fill="#000000" fill-opacity="1"><g transform="translate(472.331871, 1160.686186)"><g><path d="M 38.9375 -810.65625 C 58.019531 -809.894531 83.78125 -809.128906 116.21875 -808.359375 C 148.65625 -807.597656 180.90625 -807.21875 212.96875 -807.21875 C 249.613281 -807.21875 285.109375 -807.597656 319.453125 -808.359375 C 353.804688 -809.128906 378.234375 -809.515625 392.734375 -809.515625 C 463.722656 -809.515625 522.691406 -801.6875 569.640625 -786.03125 C 616.585938 -770.382812 651.703125 -747.675781 674.984375 -717.90625 C 698.265625 -688.144531 709.90625 -652.269531 709.90625 -610.28125 C 709.90625 -584.332031 704.5625 -558.1875 693.875 -531.84375 C 683.1875 -505.507812 665.054688 -481.082031 639.484375 -458.5625 C 613.910156 -436.050781 578.988281 -418.113281 534.71875 -404.75 C 490.445312 -391.394531 434.722656 -384.71875 367.546875 -384.71875 L 257.625 -384.71875 L 257.625 -407.625 L 356.09375 -407.625 C 401.132812 -407.625 435.296875 -416.207031 458.578125 -433.375 C 481.859375 -450.550781 497.882812 -473.453125 506.65625 -502.078125 C 515.4375 -530.703125 519.828125 -562.570312 519.828125 -597.6875 C 519.828125 -657.988281 509.140625 -704.742188 487.765625 -737.953125 C 466.390625 -771.160156 429.75 -787.765625 377.84375 -787.765625 C 348.070312 -787.765625 328.796875 -781.273438 320.015625 -768.296875 C 311.242188 -755.316406 306.859375 -728.984375 306.859375 -689.296875 L 306.859375 -121.375 C 306.859375 -93.894531 308.957031 -73.285156 313.15625 -59.546875 C 317.351562 -45.804688 325.554688 -36.644531 337.765625 -32.0625 C 349.984375 -27.476562 368.304688 -24.425781 392.734375 -22.90625 L 392.734375 0 C 372.117188 -1.53125 346.164062 -2.484375 314.875 -2.859375 C 283.582031 -3.242188 251.90625 -3.4375 219.84375 -3.4375 C 183.195312 -3.4375 148.65625 -3.242188 116.21875 -2.859375 C 83.78125 -2.484375 58.019531 -1.53125 38.9375 0 L 38.9375 -22.90625 C 63.351562 -24.425781 81.664062 -27.476562 93.875 -32.0625 C 106.09375 -36.644531 114.300781 -45.804688 118.5 -59.546875 C 122.707031 -73.285156 124.8125 -93.894531 124.8125 -121.375 L 124.8125 -689.296875 C 124.8125 -717.535156 122.707031 -738.332031 118.5 -751.6875 C 114.300781 -765.050781 105.90625 -774.210938 93.3125 -779.171875 C 80.71875 -784.128906 62.59375 -786.992188 38.9375 -787.765625 Z M 255.328125 -404.1875 C 288.148438 -403.425781 316.582031 -401.898438 340.625 -399.609375 C 364.675781 -397.316406 385.863281 -395.210938 404.1875 -393.296875 C 422.507812 -391.390625 438.921875 -390.054688 453.421875 -389.296875 C 522.878906 -383.191406 574.210938 -368.304688 607.421875 -344.640625 C 640.628906 -320.984375 662.191406 -285.488281 672.109375 -238.15625 L 698.453125 -120.21875 C 705.316406 -89.6875 712.566406 -68.3125 720.203125 -56.09375 C 727.835938 -43.882812 738.90625 -37.78125 753.40625 -37.78125 C 763.332031 -38.550781 771.539062 -41.035156 778.03125 -45.234375 C 784.519531 -49.429688 791.578125 -55.726562 799.203125 -64.125 L 815.234375 -50.375 C 794.628906 -26.71875 772.492188 -9.738281 748.828125 0.5625 C 725.160156 10.875 696.535156 16.03125 662.953125 16.03125 C 621.734375 16.03125 587.765625 7.253906 561.046875 -10.296875 C 534.328125 -27.859375 516.769531 -60.300781 508.375 -107.625 L 487.765625 -222.125 C 482.421875 -254.1875 475.929688 -282.238281 468.296875 -306.28125 C 460.671875 -330.332031 450.175781 -349.414062 436.8125 -363.53125 C 423.457031 -377.65625 404.945312 -384.71875 381.28125 -384.71875 L 257.625 -384.71875 Z M 255.328125 -404.1875 "/></g></g></g></g></g></svg>